<svg xmlns="http://www.w3.org/2000/svg" width="1800" height="1200" viewBox="0 0 1800 1200" role="img" aria-label="Abstract orbital running track">
  <defs>
    <linearGradient id="field" x1="0" x2="1" y1="0" y2="1">
      <stop offset="0" stop-color="#070a32"/>
      <stop offset="0.48" stop-color="#111b4f"/>
      <stop offset="1" stop-color="#050020"/>
    </linearGradient>
    <radialGradient id="glow" cx="50%" cy="46%" r="58%">
      <stop offset="0" stop-color="#59d7ff" stop-opacity="0.3"/>
      <stop offset="0.5" stop-color="#1899ff" stop-opacity="0.12"/>
      <stop offset="1" stop-color="#050020" stop-opacity="0"/>
    </radialGradient>
    <filter id="blur">
      <feGaussianBlur stdDeviation="14"/>
    </filter>
  </defs>
  <rect width="1800" height="1200" fill="url(#field)"/>
  <rect width="1800" height="1200" fill="url(#glow)"/>
  <g fill="none" stroke-linecap="round">
    <ellipse cx="902" cy="720" rx="700" ry="210" stroke="#59d7ff" stroke-opacity="0.2" stroke-width="5" transform="rotate(-8 902 720)"/>
    <ellipse cx="902" cy="720" rx="540" ry="160" stroke="#7d6bff" stroke-opacity="0.18" stroke-width="4" transform="rotate(-8 902 720)"/>
    <ellipse cx="902" cy="720" rx="380" ry="112" stroke="#ffffff" stroke-opacity="0.11" stroke-width="3" transform="rotate(-8 902 720)"/>
    <path d="M180 820 C 560 620, 950 590, 1600 680" stroke="#59d7ff" stroke-opacity="0.16" stroke-width="2"/>
    <path d="M220 890 C 640 710, 1040 690, 1680 765" stroke="#3bb5ff" stroke-opacity="0.16" stroke-width="2"/>
  </g>
  <g fill="#ffffff" opacity="0.56">
    <circle cx="245" cy="165" r="2"/>
    <circle cx="404" cy="251" r="1.6"/>
    <circle cx="690" cy="116" r="1.8"/>
    <circle cx="1018" cy="186" r="2.2"/>
    <circle cx="1252" cy="92" r="1.7"/>
    <circle cx="1485" cy="236" r="2"/>
    <circle cx="1617" cy="132" r="1.5"/>
    <circle cx="1536" cy="444" r="1.4"/>
    <circle cx="288" cy="420" r="1.5"/>
    <circle cx="771" cy="388" r="1.2"/>
  </g>
  <g filter="url(#blur)" opacity="0.7">
    <circle cx="1100" cy="700" r="58" fill="#1899ff" fill-opacity="0.32"/>
    <circle cx="660" cy="680" r="42" fill="#7d6bff" fill-opacity="0.22"/>
  </g>
</svg>
